<?xml version="1.0" encoding="utf-8" standalone="no"?>
<!DOCTYPE svg PUBLIC "-//W3C//DTD SVG 1.1//EN"
  "http://www.w3.org/Graphics/SVG/1.1/DTD/svg11.dtd">
<!-- Created with matplotlib (http://matplotlib.org/) -->
<svg height="345.6pt" version="1.1" viewBox="0 0 460.8 345.6" width="460.8pt" xmlns="http://www.w3.org/2000/svg" xmlns:xlink="http://www.w3.org/1999/xlink">
 <defs>
  <style type="text/css">
*{stroke-linecap:butt;stroke-linejoin:round;}
  </style>
 </defs>
 <g id="figure_1">
  <g id="patch_1">
   <path d="M 0 345.6 
L 460.8 345.6 
L 460.8 0 
L 0 0 
z
" style="fill:#ffffff;"/>
  </g>
  <g id="axes_1">
   <g id="patch_2">
    <path d="M 62.03 256.48 
L 443.16 256.48 
L 443.16 20.52 
L 62.03 20.52 
z
" style="fill:#ffffff;"/>
   </g>
   <g id="matplotlib.axis_1">
    <g id="xtick_1">
     <g id="line2d_1">
      <defs>
       <path d="M 0 0 
L 0 3.5 
" id="maf0f014874" style="stroke:#000000;stroke-width:0.8;"/>
      </defs>
      <g>
       <use style="stroke:#000000;stroke-width:0.8;" x="96.678182" xlink:href="#maf0f014874" y="256.48"/>
      </g>
     </g>
     <g id="text_1">
      <!-- 0-10 -->
      <defs>
       <path d="M 31.78125 66.40625 
Q 24.171875 66.40625 20.328125 58.90625 
Q 16.5 51.421875 16.5 36.375 
Q 16.5 21.390625 20.328125 13.890625 
Q 24.171875 6.390625 31.78125 6.390625 
Q 39.453125 6.390625 43.28125 13.890625 
Q 47.125 21.390625 47.125 36.375 
Q 47.125 51.421875 43.28125 58.90625 
Q 39.453125 66.40625 31.78125 66.40625 
z
M 31.78125 74.21875 
Q 44.046875 74.21875 50.515625 64.515625 
Q 56.984375 54.828125 56.984375 36.375 
Q 56.984375 17.96875 50.515625 8.265625 
Q 44.046875 -1.421875 31.78125 -1.421875 
Q 19.53125 -1.421875 13.0625 8.265625 
Q 6.59375 17.96875 6.59375 36.375 
Q 6.59375 54.828125 13.0625 64.515625 
Q 19.53125 74.21875 31.78125 74.21875 
z
" id="DejaVuSans-30"/>
       <path d="M 4.890625 31.390625 
L 31.203125 31.390625 
L 31.203125 23.390625 
L 4.890625 23.390625 
z
" id="DejaVuSans-2d"/>
       <path d="M 12.40625 8.296875 
L 28.515625 8.296875 
L 28.515625 63.921875 
L 10.984375 60.40625 
L 10.984375 69.390625 
L 28.421875 72.90625 
L 38.28125 72.90625 
L 38.28125 8.296875 
L 54.390625 8.296875 
L 54.390625 0 
L 12.40625 0 
z
" id="DejaVuSans-31"/>
      </defs>
      <g transform="translate(100.541307 295.253437)rotate(-90)scale(0.14 -0.14)">
       <use xlink:href="#DejaVuSans-30"/>
       <use x="63.623047" xlink:href="#DejaVuSans-2d"/>
       <use x="99.707031" xlink:href="#DejaVuSans-31"/>
       <use x="163.330078" xlink:href="#DejaVuSans-30"/>
      </g>
     </g>
    </g>
    <g id="xtick_2">
     <g id="line2d_2">
      <g>
       <use style="stroke:#000000;stroke-width:0.8;" x="131.326364" xlink:href="#maf0f014874" y="256.48"/>
      </g>
     </g>
     <g id="text_2">
      <!-- 10-20 -->
      <defs>
       <path d="M 19.1875 8.296875 
L 53.609375 8.296875 
L 53.609375 0 
L 7.328125 0 
L 7.328125 8.296875 
Q 12.9375 14.109375 22.625 23.890625 
Q 32.328125 33.6875 34.8125 36.53125 
Q 39.546875 41.84375 41.421875 45.53125 
Q 43.3125 49.21875 43.3125 52.78125 
Q 43.3125 58.59375 39.234375 62.25 
Q 35.15625 65.921875 28.609375 65.921875 
Q 23.96875 65.921875 18.8125 64.3125 
Q 13.671875 62.703125 7.8125 59.421875 
L 7.8125 69.390625 
Q 13.765625 71.78125 18.9375 73 
Q 24.125 74.21875 28.421875 74.21875 
Q 39.75 74.21875 46.484375 68.546875 
Q 53.21875 62.890625 53.21875 53.421875 
Q 53.21875 48.921875 51.53125 44.890625 
Q 49.859375 40.875 45.40625 35.40625 
Q 44.1875 33.984375 37.640625 27.21875 
Q 31.109375 20.453125 19.1875 8.296875 
z
" id="DejaVuSans-32"/>
      </defs>
      <g transform="translate(135.189489 304.160937)rotate(-90)scale(0.14 -0.14)">
       <use xlink:href="#DejaVuSans-31"/>
       <use x="63.623047" xlink:href="#DejaVuSans-30"/>
       <use x="127.246094" xlink:href="#DejaVuSans-2d"/>
       <use x="163.330078" xlink:href="#DejaVuSans-32"/>
       <use x="226.953125" xlink:href="#DejaVuSans-30"/>
      </g>
     </g>
    </g>
    <g id="xtick_3">
     <g id="line2d_3">
      <g>
       <use style="stroke:#000000;stroke-width:0.8;" x="165.974545" xlink:href="#maf0f014874" y="256.48"/>
      </g>
     </g>
     <g id="text_3">
      <!-- 20-30 -->
      <defs>
       <path d="M 40.578125 39.3125 
Q 47.65625 37.796875 51.625 33 
Q 55.609375 28.21875 55.609375 21.1875 
Q 55.609375 10.40625 48.1875 4.484375 
Q 40.765625 -1.421875 27.09375 -1.421875 
Q 22.515625 -1.421875 17.65625 -0.515625 
Q 12.796875 0.390625 7.625 2.203125 
L 7.625 11.71875 
Q 11.71875 9.328125 16.59375 8.109375 
Q 21.484375 6.890625 26.8125 6.890625 
Q 36.078125 6.890625 40.9375 10.546875 
Q 45.796875 14.203125 45.796875 21.1875 
Q 45.796875 27.640625 41.28125 31.265625 
Q 36.765625 34.90625 28.71875 34.90625 
L 20.21875 34.90625 
L 20.21875 43.015625 
L 29.109375 43.015625 
Q 36.375 43.015625 40.234375 45.921875 
Q 44.09375 48.828125 44.09375 54.296875 
Q 44.09375 59.90625 40.109375 62.90625 
Q 36.140625 65.921875 28.71875 65.921875 
Q 24.65625 65.921875 20.015625 65.03125 
Q 15.375 64.15625 9.8125 62.3125 
L 9.8125 71.09375 
Q 15.4375 72.65625 20.34375 73.4375 
Q 25.25 74.21875 29.59375 74.21875 
Q 40.828125 74.21875 47.359375 69.109375 
Q 53.90625 64.015625 53.90625 55.328125 
Q 53.90625 49.265625 50.4375 45.09375 
Q 46.96875 40.921875 40.578125 39.3125 
z
" id="DejaVuSans-33"/>
      </defs>
      <g transform="translate(169.83767 304.160937)rotate(-90)scale(0.14 -0.14)">
       <use xlink:href="#DejaVuSans-32"/>
       <use x="63.623047" xlink:href="#DejaVuSans-30"/>
       <use x="127.246094" xlink:href="#DejaVuSans-2d"/>
       <use x="163.330078" xlink:href="#DejaVuSans-33"/>
       <use x="226.953125" xlink:href="#DejaVuSans-30"/>
      </g>
     </g>
    </g>
    <g id="xtick_4">
     <g id="line2d_4">
      <g>
       <use style="stroke:#000000;stroke-width:0.8;" x="200.622727" xlink:href="#maf0f014874" y="256.48"/>
      </g>
     </g>
     <g id="text_4">
      <!-- 30-40 -->
      <defs>
       <path d="M 37.796875 64.3125 
L 12.890625 25.390625 
L 37.796875 25.390625 
z
M 35.203125 72.90625 
L 47.609375 72.90625 
L 47.609375 25.390625 
L 58.015625 25.390625 
L 58.015625 17.1875 
L 47.609375 17.1875 
L 47.609375 0 
L 37.796875 0 
L 37.796875 17.1875 
L 4.890625 17.1875 
L 4.890625 26.703125 
z
" id="DejaVuSans-34"/>
      </defs>
      <g transform="translate(204.485852 304.160937)rotate(-90)scale(0.14 -0.14)">
       <use xlink:href="#DejaVuSans-33"/>
       <use x="63.623047" xlink:href="#DejaVuSans-30"/>
       <use x="127.246094" xlink:href="#DejaVuSans-2d"/>
       <use x="163.330078" xlink:href="#DejaVuSans-34"/>
       <use x="226.953125" xlink:href="#DejaVuSans-30"/>
      </g>
     </g>
    </g>
    <g id="xtick_5">
     <g id="line2d_5">
      <g>
       <use style="stroke:#000000;stroke-width:0.8;" x="235.270909" xlink:href="#maf0f014874" y="256.48"/>
      </g>
     </g>
     <g id="text_5">
      <!-- 40-50 -->
      <defs>
       <path d="M 10.796875 72.90625 
L 49.515625 72.90625 
L 49.515625 64.59375 
L 19.828125 64.59375 
L 19.828125 46.734375 
Q 21.96875 47.46875 24.109375 47.828125 
Q 26.265625 48.1875 28.421875 48.1875 
Q 40.625 48.1875 47.75 41.5 
Q 54.890625 34.8125 54.890625 23.390625 
Q 54.890625 11.625 47.5625 5.09375 
Q 40.234375 -1.421875 26.90625 -1.421875 
Q 22.3125 -1.421875 17.546875 -0.640625 
Q 12.796875 0.140625 7.71875 1.703125 
L 7.71875 11.625 
Q 12.109375 9.234375 16.796875 8.0625 
Q 21.484375 6.890625 26.703125 6.890625 
Q 35.15625 6.890625 40.078125 11.328125 
Q 45.015625 15.765625 45.015625 23.390625 
Q 45.015625 31 40.078125 35.4375 
Q 35.15625 39.890625 26.703125 39.890625 
Q 22.75 39.890625 18.8125 39.015625 
Q 14.890625 38.140625 10.796875 36.28125 
z
" id="DejaVuSans-35"/>
      </defs>
      <g transform="translate(239.134034 304.160937)rotate(-90)scale(0.14 -0.14)">
       <use xlink:href="#DejaVuSans-34"/>
       <use x="63.623047" xlink:href="#DejaVuSans-30"/>
       <use x="127.246094" xlink:href="#DejaVuSans-2d"/>
       <use x="163.330078" xlink:href="#DejaVuSans-35"/>
       <use x="226.953125" xlink:href="#DejaVuSans-30"/>
      </g>
     </g>
    </g>
    <g id="xtick_6">
     <g id="line2d_6">
      <g>
       <use style="stroke:#000000;stroke-width:0.8;" x="269.919091" xlink:href="#maf0f014874" y="256.48"/>
      </g>
     </g>
     <g id="text_6">
      <!-- 50-60 -->
      <defs>
       <path d="M 33.015625 40.375 
Q 26.375 40.375 22.484375 35.828125 
Q 18.609375 31.296875 18.609375 23.390625 
Q 18.609375 15.53125 22.484375 10.953125 
Q 26.375 6.390625 33.015625 6.390625 
Q 39.65625 6.390625 43.53125 10.953125 
Q 47.40625 15.53125 47.40625 23.390625 
Q 47.40625 31.296875 43.53125 35.828125 
Q 39.65625 40.375 33.015625 40.375 
z
M 52.59375 71.296875 
L 52.59375 62.3125 
Q 48.875 64.0625 45.09375 64.984375 
Q 41.3125 65.921875 37.59375 65.921875 
Q 27.828125 65.921875 22.671875 59.328125 
Q 17.53125 52.734375 16.796875 39.40625 
Q 19.671875 43.65625 24.015625 45.921875 
Q 28.375 48.1875 33.59375 48.1875 
Q 44.578125 48.1875 50.953125 41.515625 
Q 57.328125 34.859375 57.328125 23.390625 
Q 57.328125 12.15625 50.6875 5.359375 
Q 44.046875 -1.421875 33.015625 -1.421875 
Q 20.359375 -1.421875 13.671875 8.265625 
Q 6.984375 17.96875 6.984375 36.375 
Q 6.984375 53.65625 15.1875 63.9375 
Q 23.390625 74.21875 37.203125 74.21875 
Q 40.921875 74.21875 44.703125 73.484375 
Q 48.484375 72.75 52.59375 71.296875 
z
" id="DejaVuSans-36"/>
      </defs>
      <g transform="translate(273.782216 304.160937)rotate(-90)scale(0.14 -0.14)">
       <use xlink:href="#DejaVuSans-35"/>
       <use x="63.623047" xlink:href="#DejaVuSans-30"/>
       <use x="127.246094" xlink:href="#DejaVuSans-2d"/>
       <use x="163.330078" xlink:href="#DejaVuSans-36"/>
       <use x="226.953125" xlink:href="#DejaVuSans-30"/>
      </g>
     </g>
    </g>
    <g id="xtick_7">
     <g id="line2d_7">
      <g>
       <use style="stroke:#000000;stroke-width:0.8;" x="304.567273" xlink:href="#maf0f014874" y="256.48"/>
      </g>
     </g>
     <g id="text_7">
      <!-- 60-70 -->
      <defs>
       <path d="M 8.203125 72.90625 
L 55.078125 72.90625 
L 55.078125 68.703125 
L 28.609375 0 
L 18.3125 0 
L 43.21875 64.59375 
L 8.203125 64.59375 
z
" id="DejaVuSans-37"/>
      </defs>
      <g transform="translate(308.430398 304.160937)rotate(-90)scale(0.14 -0.14)">
       <use xlink:href="#DejaVuSans-36"/>
       <use x="63.623047" xlink:href="#DejaVuSans-30"/>
       <use x="127.246094" xlink:href="#DejaVuSans-2d"/>
       <use x="163.330078" xlink:href="#DejaVuSans-37"/>
       <use x="226.953125" xlink:href="#DejaVuSans-30"/>
      </g>
     </g>
    </g>
    <g id="xtick_8">
     <g id="line2d_8">
      <g>
       <use style="stroke:#000000;stroke-width:0.8;" x="339.215455" xlink:href="#maf0f014874" y="256.48"/>
      </g>
     </g>
     <g id="text_8">
      <!-- 70-80 -->
      <defs>
       <path d="M 31.78125 34.625 
Q 24.75 34.625 20.71875 30.859375 
Q 16.703125 27.09375 16.703125 20.515625 
Q 16.703125 13.921875 20.71875 10.15625 
Q 24.75 6.390625 31.78125 6.390625 
Q 38.8125 6.390625 42.859375 10.171875 
Q 46.921875 13.96875 46.921875 20.515625 
Q 46.921875 27.09375 42.890625 30.859375 
Q 38.875 34.625 31.78125 34.625 
z
M 21.921875 38.8125 
Q 15.578125 40.375 12.03125 44.71875 
Q 8.5 49.078125 8.5 55.328125 
Q 8.5 64.0625 14.71875 69.140625 
Q 20.953125 74.21875 31.78125 74.21875 
Q 42.671875 74.21875 48.875 69.140625 
Q 55.078125 64.0625 55.078125 55.328125 
Q 55.078125 49.078125 51.53125 44.71875 
Q 48 40.375 41.703125 38.8125 
Q 48.828125 37.15625 52.796875 32.3125 
Q 56.78125 27.484375 56.78125 20.515625 
Q 56.78125 9.90625 50.3125 4.234375 
Q 43.84375 -1.421875 31.78125 -1.421875 
Q 19.734375 -1.421875 13.25 4.234375 
Q 6.78125 9.90625 6.78125 20.515625 
Q 6.78125 27.484375 10.78125 32.3125 
Q 14.796875 37.15625 21.921875 38.8125 
z
M 18.3125 54.390625 
Q 18.3125 48.734375 21.84375 45.5625 
Q 25.390625 42.390625 31.78125 42.390625 
Q 38.140625 42.390625 41.71875 45.5625 
Q 45.3125 48.734375 45.3125 54.390625 
Q 45.3125 60.0625 41.71875 63.234375 
Q 38.140625 66.40625 31.78125 66.40625 
Q 25.390625 66.40625 21.84375 63.234375 
Q 18.3125 60.0625 18.3125 54.390625 
z
" id="DejaVuSans-38"/>
      </defs>
      <g transform="translate(343.07858 304.160937)rotate(-90)scale(0.14 -0.14)">
       <use xlink:href="#DejaVuSans-37"/>
       <use x="63.623047" xlink:href="#DejaVuSans-30"/>
       <use x="127.246094" xlink:href="#DejaVuSans-2d"/>
       <use x="163.330078" xlink:href="#DejaVuSans-38"/>
       <use x="226.953125" xlink:href="#DejaVuSans-30"/>
      </g>
     </g>
    </g>
    <g id="xtick_9">
     <g id="line2d_9">
      <g>
       <use style="stroke:#000000;stroke-width:0.8;" x="373.863636" xlink:href="#maf0f014874" y="256.48"/>
      </g>
     </g>
     <g id="text_9">
      <!-- 80-90 -->
      <defs>
       <path d="M 10.984375 1.515625 
L 10.984375 10.5 
Q 14.703125 8.734375 18.5 7.8125 
Q 22.3125 6.890625 25.984375 6.890625 
Q 35.75 6.890625 40.890625 13.453125 
Q 46.046875 20.015625 46.78125 33.40625 
Q 43.953125 29.203125 39.59375 26.953125 
Q 35.25 24.703125 29.984375 24.703125 
Q 19.046875 24.703125 12.671875 31.3125 
Q 6.296875 37.9375 6.296875 49.421875 
Q 6.296875 60.640625 12.9375 67.421875 
Q 19.578125 74.21875 30.609375 74.21875 
Q 43.265625 74.21875 49.921875 64.515625 
Q 56.59375 54.828125 56.59375 36.375 
Q 56.59375 19.140625 48.40625 8.859375 
Q 40.234375 -1.421875 26.421875 -1.421875 
Q 22.703125 -1.421875 18.890625 -0.6875 
Q 15.09375 0.046875 10.984375 1.515625 
z
M 30.609375 32.421875 
Q 37.25 32.421875 41.125 36.953125 
Q 45.015625 41.5 45.015625 49.421875 
Q 45.015625 57.28125 41.125 61.84375 
Q 37.25 66.40625 30.609375 66.40625 
Q 23.96875 66.40625 20.09375 61.84375 
Q 16.21875 57.28125 16.21875 49.421875 
Q 16.21875 41.5 20.09375 36.953125 
Q 23.96875 32.421875 30.609375 32.421875 
z
" id="DejaVuSans-39"/>
      </defs>
      <g transform="translate(377.726761 304.160937)rotate(-90)scale(0.14 -0.14)">
       <use xlink:href="#DejaVuSans-38"/>
       <use x="63.623047" xlink:href="#DejaVuSans-30"/>
       <use x="127.246094" xlink:href="#DejaVuSans-2d"/>
       <use x="163.330078" xlink:href="#DejaVuSans-39"/>
       <use x="226.953125" xlink:href="#DejaVuSans-30"/>
      </g>
     </g>
    </g>
    <g id="xtick_10">
     <g id="line2d_10">
      <g>
       <use style="stroke:#000000;stroke-width:0.8;" x="408.511818" xlink:href="#maf0f014874" y="256.48"/>
      </g>
     </g>
     <g id="text_10">
      <!-- 90-100 -->
      <g transform="translate(412.374943 313.068437)rotate(-90)scale(0.14 -0.14)">
       <use xlink:href="#DejaVuSans-39"/>
       <use x="63.623047" xlink:href="#DejaVuSans-30"/>
       <use x="127.246094" xlink:href="#DejaVuSans-2d"/>
       <use x="163.330078" xlink:href="#DejaVuSans-31"/>
       <use x="226.953125" xlink:href="#DejaVuSans-30"/>
       <use x="290.576172" xlink:href="#DejaVuSans-30"/>
      </g>
     </g>
    </g>
    <g id="text_11">
     <!-- Mu (% tumor fraction) -->
     <defs>
      <path d="M 9.8125 72.90625 
L 24.515625 72.90625 
L 43.109375 23.296875 
L 61.8125 72.90625 
L 76.515625 72.90625 
L 76.515625 0 
L 66.890625 0 
L 66.890625 64.015625 
L 48.09375 14.015625 
L 38.1875 14.015625 
L 19.390625 64.015625 
L 19.390625 0 
L 9.8125 0 
z
" id="DejaVuSans-4d"/>
      <path d="M 8.5 21.578125 
L 8.5 54.6875 
L 17.484375 54.6875 
L 17.484375 21.921875 
Q 17.484375 14.15625 20.5 10.265625 
Q 23.53125 6.390625 29.59375 6.390625 
Q 36.859375 6.390625 41.078125 11.03125 
Q 45.3125 15.671875 45.3125 23.6875 
L 45.3125 54.6875 
L 54.296875 54.6875 
L 54.296875 0 
L 45.3125 0 
L 45.3125 8.40625 
Q 42.046875 3.421875 37.71875 1 
Q 33.40625 -1.421875 27.6875 -1.421875 
Q 18.265625 -1.421875 13.375 4.4375 
Q 8.5 10.296875 8.5 21.578125 
z
M 31.109375 56 
z
" id="DejaVuSans-75"/>
      <path id="DejaVuSans-20"/>
      <path d="M 31 75.875 
Q 24.46875 64.65625 21.28125 53.65625 
Q 18.109375 42.671875 18.109375 31.390625 
Q 18.109375 20.125 21.3125 9.0625 
Q 24.515625 -2 31 -13.1875 
L 23.1875 -13.1875 
Q 15.875 -1.703125 12.234375 9.375 
Q 8.59375 20.453125 8.59375 31.390625 
Q 8.59375 42.28125 12.203125 53.3125 
Q 15.828125 64.359375 23.1875 75.875 
z
" id="DejaVuSans-28"/>
      <path d="M 72.703125 32.078125 
Q 68.453125 32.078125 66.03125 28.46875 
Q 63.625 24.859375 63.625 18.40625 
Q 63.625 12.0625 66.03125 8.421875 
Q 68.453125 4.78125 72.703125 4.78125 
Q 76.859375 4.78125 79.265625 8.421875 
Q 81.6875 12.0625 81.6875 18.40625 
Q 81.6875 24.8125 79.265625 28.4375 
Q 76.859375 32.078125 72.703125 32.078125 
z
M 72.703125 38.28125 
Q 80.421875 38.28125 84.953125 32.90625 
Q 89.5 27.546875 89.5 18.40625 
Q 89.5 9.28125 84.9375 3.921875 
Q 80.375 -1.421875 72.703125 -1.421875 
Q 64.890625 -1.421875 60.34375 3.921875 
Q 55.8125 9.28125 55.8125 18.40625 
Q 55.8125 27.59375 60.375 32.9375 
Q 64.9375 38.28125 72.703125 38.28125 
z
M 22.3125 68.015625 
Q 18.109375 68.015625 15.6875 64.375 
Q 13.28125 60.75 13.28125 54.390625 
Q 13.28125 47.953125 15.671875 44.328125 
Q 18.0625 40.71875 22.3125 40.71875 
Q 26.5625 40.71875 28.96875 44.328125 
Q 31.390625 47.953125 31.390625 54.390625 
Q 31.390625 60.6875 28.953125 64.34375 
Q 26.515625 68.015625 22.3125 68.015625 
z
M 66.40625 74.21875 
L 74.21875 74.21875 
L 28.609375 -1.421875 
L 20.796875 -1.421875 
z
M 22.3125 74.21875 
Q 30.03125 74.21875 34.609375 68.875 
Q 39.203125 63.53125 39.203125 54.390625 
Q 39.203125 45.171875 34.640625 39.84375 
Q 30.078125 34.515625 22.3125 34.515625 
Q 14.546875 34.515625 10.03125 39.859375 
Q 5.515625 45.21875 5.515625 54.390625 
Q 5.515625 63.484375 10.046875 68.84375 
Q 14.59375 74.21875 22.3125 74.21875 
z
" id="DejaVuSans-25"/>
      <path d="M 18.3125 70.21875 
L 18.3125 54.6875 
L 36.8125 54.6875 
L 36.8125 47.703125 
L 18.3125 47.703125 
L 18.3125 18.015625 
Q 18.3125 11.328125 20.140625 9.421875 
Q 21.96875 7.515625 27.59375 7.515625 
L 36.8125 7.515625 
L 36.8125 0 
L 27.59375 0 
Q 17.1875 0 13.234375 3.875 
Q 9.28125 7.765625 9.28125 18.015625 
L 9.28125 47.703125 
L 2.6875 47.703125 
L 2.6875 54.6875 
L 9.28125 54.6875 
L 9.28125 70.21875 
z
" id="DejaVuSans-74"/>
      <path d="M 52 44.1875 
Q 55.375 50.25 60.0625 53.125 
Q 64.75 56 71.09375 56 
Q 79.640625 56 84.28125 50.015625 
Q 88.921875 44.046875 88.921875 33.015625 
L 88.921875 0 
L 79.890625 0 
L 79.890625 32.71875 
Q 79.890625 40.578125 77.09375 44.375 
Q 74.3125 48.1875 68.609375 48.1875 
Q 61.625 48.1875 57.5625 43.546875 
Q 53.515625 38.921875 53.515625 30.90625 
L 53.515625 0 
L 44.484375 0 
L 44.484375 32.71875 
Q 44.484375 40.625 41.703125 44.40625 
Q 38.921875 48.1875 33.109375 48.1875 
Q 26.21875 48.1875 22.15625 43.53125 
Q 18.109375 38.875 18.109375 30.90625 
L 18.109375 0 
L 9.078125 0 
L 9.078125 54.6875 
L 18.109375 54.6875 
L 18.109375 46.1875 
Q 21.1875 51.21875 25.484375 53.609375 
Q 29.78125 56 35.6875 56 
Q 41.65625 56 45.828125 52.96875 
Q 50 49.953125 52 44.1875 
z
" id="DejaVuSans-6d"/>
      <path d="M 30.609375 48.390625 
Q 23.390625 48.390625 19.1875 42.75 
Q 14.984375 37.109375 14.984375 27.296875 
Q 14.984375 17.484375 19.15625 11.84375 
Q 23.34375 6.203125 30.609375 6.203125 
Q 37.796875 6.203125 41.984375 11.859375 
Q 46.1875 17.53125 46.1875 27.296875 
Q 46.1875 37.015625 41.984375 42.703125 
Q 37.796875 48.390625 30.609375 48.390625 
z
M 30.609375 56 
Q 42.328125 56 49.015625 48.375 
Q 55.71875 40.765625 55.71875 27.296875 
Q 55.71875 13.875 49.015625 6.21875 
Q 42.328125 -1.421875 30.609375 -1.421875 
Q 18.84375 -1.421875 12.171875 6.21875 
Q 5.515625 13.875 5.515625 27.296875 
Q 5.515625 40.765625 12.171875 48.375 
Q 18.84375 56 30.609375 56 
z
" id="DejaVuSans-6f"/>
      <path d="M 41.109375 46.296875 
Q 39.59375 47.171875 37.8125 47.578125 
Q 36.03125 48 33.890625 48 
Q 26.265625 48 22.1875 43.046875 
Q 18.109375 38.09375 18.109375 28.8125 
L 18.109375 0 
L 9.078125 0 
L 9.078125 54.6875 
L 18.109375 54.6875 
L 18.109375 46.1875 
Q 20.953125 51.171875 25.484375 53.578125 
Q 30.03125 56 36.53125 56 
Q 37.453125 56 38.578125 55.875 
Q 39.703125 55.765625 41.0625 55.515625 
z
" id="DejaVuSans-72"/>
      <path d="M 37.109375 75.984375 
L 37.109375 68.5 
L 28.515625 68.5 
Q 23.6875 68.5 21.796875 66.546875 
Q 19.921875 64.59375 19.921875 59.515625 
L 19.921875 54.6875 
L 34.71875 54.6875 
L 34.71875 47.703125 
L 19.921875 47.703125 
L 19.921875 0 
L 10.890625 0 
L 10.890625 47.703125 
L 2.296875 47.703125 
L 2.296875 54.6875 
L 10.890625 54.6875 
L 10.890625 58.5 
Q 10.890625 67.625 15.140625 71.796875 
Q 19.390625 75.984375 28.609375 75.984375 
z
" id="DejaVuSans-66"/>
      <path d="M 34.28125 27.484375 
Q 23.390625 27.484375 19.1875 25 
Q 14.984375 22.515625 14.984375 16.5 
Q 14.984375 11.71875 18.140625 8.90625 
Q 21.296875 6.109375 26.703125 6.109375 
Q 34.1875 6.109375 38.703125 11.40625 
Q 43.21875 16.703125 43.21875 25.484375 
L 43.21875 27.484375 
z
M 52.203125 31.203125 
L 52.203125 0 
L 43.21875 0 
L 43.21875 8.296875 
Q 40.140625 3.328125 35.546875 0.953125 
Q 30.953125 -1.421875 24.3125 -1.421875 
Q 15.921875 -1.421875 10.953125 3.296875 
Q 6 8.015625 6 15.921875 
Q 6 25.140625 12.171875 29.828125 
Q 18.359375 34.515625 30.609375 34.515625 
L 43.21875 34.515625 
L 43.21875 35.40625 
Q 43.21875 41.609375 39.140625 45 
Q 35.0625 48.390625 27.6875 48.390625 
Q 23 48.390625 18.546875 47.265625 
Q 14.109375 46.140625 10.015625 43.890625 
L 10.015625 52.203125 
Q 14.9375 54.109375 19.578125 55.046875 
Q 24.21875 56 28.609375 56 
Q 40.484375 56 46.34375 49.84375 
Q 52.203125 43.703125 52.203125 31.203125 
z
" id="DejaVuSans-61"/>
      <path d="M 48.78125 52.59375 
L 48.78125 44.1875 
Q 44.96875 46.296875 41.140625 47.34375 
Q 37.3125 48.390625 33.40625 48.390625 
Q 24.65625 48.390625 19.8125 42.84375 
Q 14.984375 37.3125 14.984375 27.296875 
Q 14.984375 17.28125 19.8125 11.734375 
Q 24.65625 6.203125 33.40625 6.203125 
Q 37.3125 6.203125 41.140625 7.25 
Q 44.96875 8.296875 48.78125 10.40625 
L 48.78125 2.09375 
Q 45.015625 0.34375 40.984375 -0.53125 
Q 36.96875 -1.421875 32.421875 -1.421875 
Q 20.0625 -1.421875 12.78125 6.34375 
Q 5.515625 14.109375 5.515625 27.296875 
Q 5.515625 40.671875 12.859375 48.328125 
Q 20.21875 56 33.015625 56 
Q 37.15625 56 41.109375 55.140625 
Q 45.0625 54.296875 48.78125 52.59375 
z
" id="DejaVuSans-63"/>
      <path d="M 9.421875 54.6875 
L 18.40625 54.6875 
L 18.40625 0 
L 9.421875 0 
z
M 9.421875 75.984375 
L 18.40625 75.984375 
L 18.40625 64.59375 
L 9.421875 64.59375 
z
" id="DejaVuSans-69"/>
      <path d="M 54.890625 33.015625 
L 54.890625 0 
L 45.90625 0 
L 45.90625 32.71875 
Q 45.90625 40.484375 42.875 44.328125 
Q 39.84375 48.1875 33.796875 48.1875 
Q 26.515625 48.1875 22.3125 43.546875 
Q 18.109375 38.921875 18.109375 30.90625 
L 18.109375 0 
L 9.078125 0 
L 9.078125 54.6875 
L 18.109375 54.6875 
L 18.109375 46.1875 
Q 21.34375 51.125 25.703125 53.5625 
Q 30.078125 56 35.796875 56 
Q 45.21875 56 50.046875 50.171875 
Q 54.890625 44.34375 54.890625 33.015625 
z
" id="DejaVuSans-6e"/>
      <path d="M 8.015625 75.875 
L 15.828125 75.875 
Q 23.140625 64.359375 26.78125 53.3125 
Q 30.421875 42.28125 30.421875 31.390625 
Q 30.421875 20.453125 26.78125 9.375 
Q 23.140625 -1.703125 15.828125 -13.1875 
L 8.015625 -13.1875 
Q 14.5 -2 17.703125 9.0625 
Q 20.90625 20.125 20.90625 31.390625 
Q 20.90625 42.671875 17.703125 53.65625 
Q 14.5 64.65625 8.015625 75.875 
z
" id="DejaVuSans-29"/>
     </defs>
     <g transform="translate(175.283281 327.70625)scale(0.14 -0.14)">
      <use xlink:href="#DejaVuSans-4d"/>
      <use x="86.279297" xlink:href="#DejaVuSans-75"/>
      <use x="149.658203" xlink:href="#DejaVuSans-20"/>
      <use x="181.445312" xlink:href="#DejaVuSans-28"/>
      <use x="220.458984" xlink:href="#DejaVuSans-25"/>
      <use x="315.478516" xlink:href="#DejaVuSans-20"/>
      <use x="347.265625" xlink:href="#DejaVuSans-74"/>
      <use x="386.474609" xlink:href="#DejaVuSans-75"/>
      <use x="449.853516" xlink:href="#DejaVuSans-6d"/>
      <use x="547.265625" xlink:href="#DejaVuSans-6f"/>
      <use x="608.447266" xlink:href="#DejaVuSans-72"/>
      <use x="649.560547" xlink:href="#DejaVuSans-20"/>
      <use x="681.347656" xlink:href="#DejaVuSans-66"/>
      <use x="716.552734" xlink:href="#DejaVuSans-72"/>
      <use x="757.666016" xlink:href="#DejaVuSans-61"/>
      <use x="818.945312" xlink:href="#DejaVuSans-63"/>
      <use x="873.925781" xlink:href="#DejaVuSans-74"/>
      <use x="913.134766" xlink:href="#DejaVuSans-69"/>
      <use x="940.917969" xlink:href="#DejaVuSans-6f"/>
      <use x="1002.099609" xlink:href="#DejaVuSans-6e"/>
      <use x="1065.478516" xlink:href="#DejaVuSans-29"/>
     </g>
    </g>
   </g>
   <g id="matplotlib.axis_2">
    <g id="ytick_1">
     <g id="line2d_11">
      <defs>
       <path d="M 0 0 
L -3.5 0 
" id="m69e46baf98" style="stroke:#000000;stroke-width:0.8;"/>
      </defs>
      <g>
       <use style="stroke:#000000;stroke-width:0.8;" x="62.03" xlink:href="#m69e46baf98" y="256.48"/>
      </g>
     </g>
     <g id="text_12">
      <!-- 0.0 -->
      <defs>
       <path d="M 10.6875 12.40625 
L 21 12.40625 
L 21 0 
L 10.6875 0 
z
" id="DejaVuSans-2e"/>
      </defs>
      <g transform="translate(32.765625 261.798906)scale(0.14 -0.14)">
       <use xlink:href="#DejaVuSans-30"/>
       <use x="63.623047" xlink:href="#DejaVuSans-2e"/>
       <use x="95.410156" xlink:href="#DejaVuSans-30"/>
      </g>
     </g>
    </g>
    <g id="ytick_2">
     <g id="line2d_12">
      <g>
       <use style="stroke:#000000;stroke-width:0.8;" x="62.03" xlink:href="#m69e46baf98" y="222.771429"/>
      </g>
     </g>
     <g id="text_13">
      <!-- 0.1 -->
      <g transform="translate(32.765625 228.090335)scale(0.14 -0.14)">
       <use xlink:href="#DejaVuSans-30"/>
       <use x="63.623047" xlink:href="#DejaVuSans-2e"/>
       <use x="95.410156" xlink:href="#DejaVuSans-31"/>
      </g>
     </g>
    </g>
    <g id="ytick_3">
     <g id="line2d_13">
      <g>
       <use style="stroke:#000000;stroke-width:0.8;" x="62.03" xlink:href="#m69e46baf98" y="189.062857"/>
      </g>
     </g>
     <g id="text_14">
      <!-- 0.2 -->
      <g transform="translate(32.765625 194.381763)scale(0.14 -0.14)">
       <use xlink:href="#DejaVuSans-30"/>
       <use x="63.623047" xlink:href="#DejaVuSans-2e"/>
       <use x="95.410156" xlink:href="#DejaVuSans-32"/>
      </g>
     </g>
    </g>
    <g id="ytick_4">
     <g id="line2d_14">
      <g>
       <use style="stroke:#000000;stroke-width:0.8;" x="62.03" xlink:href="#m69e46baf98" y="155.354286"/>
      </g>
     </g>
     <g id="text_15">
      <!-- 0.3 -->
      <g transform="translate(32.765625 160.673192)scale(0.14 -0.14)">
       <use xlink:href="#DejaVuSans-30"/>
       <use x="63.623047" xlink:href="#DejaVuSans-2e"/>
       <use x="95.410156" xlink:href="#DejaVuSans-33"/>
      </g>
     </g>
    </g>
    <g id="ytick_5">
     <g id="line2d_15">
      <g>
       <use style="stroke:#000000;stroke-width:0.8;" x="62.03" xlink:href="#m69e46baf98" y="121.645714"/>
      </g>
     </g>
     <g id="text_16">
      <!-- 0.4 -->
      <g transform="translate(32.765625 126.964621)scale(0.14 -0.14)">
       <use xlink:href="#DejaVuSans-30"/>
       <use x="63.623047" xlink:href="#DejaVuSans-2e"/>
       <use x="95.410156" xlink:href="#DejaVuSans-34"/>
      </g>
     </g>
    </g>
    <g id="ytick_6">
     <g id="line2d_16">
      <g>
       <use style="stroke:#000000;stroke-width:0.8;" x="62.03" xlink:href="#m69e46baf98" y="87.937143"/>
      </g>
     </g>
     <g id="text_17">
      <!-- 0.5 -->
      <g transform="translate(32.765625 93.256049)scale(0.14 -0.14)">
       <use xlink:href="#DejaVuSans-30"/>
       <use x="63.623047" xlink:href="#DejaVuSans-2e"/>
       <use x="95.410156" xlink:href="#DejaVuSans-35"/>
      </g>
     </g>
    </g>
    <g id="ytick_7">
     <g id="line2d_17">
      <g>
       <use style="stroke:#000000;stroke-width:0.8;" x="62.03" xlink:href="#m69e46baf98" y="54.228571"/>
      </g>
     </g>
     <g id="text_18">
      <!-- 0.6 -->
      <g transform="translate(32.765625 59.547478)scale(0.14 -0.14)">
       <use xlink:href="#DejaVuSans-30"/>
       <use x="63.623047" xlink:href="#DejaVuSans-2e"/>
       <use x="95.410156" xlink:href="#DejaVuSans-36"/>
      </g>
     </g>
    </g>
    <g id="ytick_8">
     <g id="line2d_18">
      <g>
       <use style="stroke:#000000;stroke-width:0.8;" x="62.03" xlink:href="#m69e46baf98" y="20.52"/>
      </g>
     </g>
     <g id="text_19">
      <!-- 0.7 -->
      <g transform="translate(32.765625 25.838906)scale(0.14 -0.14)">
       <use xlink:href="#DejaVuSans-30"/>
       <use x="63.623047" xlink:href="#DejaVuSans-2e"/>
       <use x="95.410156" xlink:href="#DejaVuSans-37"/>
      </g>
     </g>
    </g>
    <g id="text_20">
     <!-- Error -->
     <defs>
      <path d="M 9.8125 72.90625 
L 55.90625 72.90625 
L 55.90625 64.59375 
L 19.671875 64.59375 
L 19.671875 43.015625 
L 54.390625 43.015625 
L 54.390625 34.71875 
L 19.671875 34.71875 
L 19.671875 8.296875 
L 56.78125 8.296875 
L 56.78125 0 
L 9.8125 0 
z
" id="DejaVuSans-45"/>
     </defs>
     <g transform="translate(25.854063 155.835937)rotate(-90)scale(0.14 -0.14)">
      <use xlink:href="#DejaVuSans-45"/>
      <use x="63.183594" xlink:href="#DejaVuSans-72"/>
      <use x="104.28125" xlink:href="#DejaVuSans-72"/>
      <use x="145.363281" xlink:href="#DejaVuSans-6f"/>
      <use x="206.544922" xlink:href="#DejaVuSans-72"/>
     </g>
    </g>
   </g>
   <g id="LineCollection_1">
    <path clip-path="url(#pc82d3fa4f6)" d="M 93.213364 251.953176 
L 93.213364 237.115473 
" style="fill:none;stroke:#1f77b4;stroke-width:2;"/>
    <path clip-path="url(#pc82d3fa4f6)" d="M 127.861545 237.875205 
L 127.861545 216.038614 
" style="fill:none;stroke:#1f77b4;stroke-width:2;"/>
    <path clip-path="url(#pc82d3fa4f6)" d="M 162.509727 248.346197 
L 162.509727 215.815027 
" style="fill:none;stroke:#1f77b4;stroke-width:2;"/>
    <path clip-path="url(#pc82d3fa4f6)" d="M 197.157909 245.57424 
L 197.157909 224.941853 
" style="fill:none;stroke:#1f77b4;stroke-width:2;"/>
    <path clip-path="url(#pc82d3fa4f6)" d="M 231.806091 254.184476 
L 231.806091 239.465328 
" style="fill:none;stroke:#1f77b4;stroke-width:2;"/>
    <path clip-path="url(#pc82d3fa4f6)" d="M 266.454273 246.180157 
L 266.454273 212.38705 
" style="fill:none;stroke:#1f77b4;stroke-width:2;"/>
    <path clip-path="url(#pc82d3fa4f6)" d="M 301.102455 250.048132 
L 301.102455 214.599459 
" style="fill:none;stroke:#1f77b4;stroke-width:2;"/>
    <path clip-path="url(#pc82d3fa4f6)" d="M 335.750636 254.905315 
L 335.750636 218.996081 
" style="fill:none;stroke:#1f77b4;stroke-width:2;"/>
    <path clip-path="url(#pc82d3fa4f6)" d="M 370.398818 255.0894 
L 370.398818 206.035645 
" style="fill:none;stroke:#1f77b4;stroke-width:2;"/>
    <path clip-path="url(#pc82d3fa4f6)" d="M 405.047 256.48 
L 405.047 227.916838 
" style="fill:none;stroke:#1f77b4;stroke-width:2;"/>
   </g>
   <g id="LineCollection_2">
    <path clip-path="url(#pc82d3fa4f6)" d="M 89.748545 251.981823 
L 89.748545 236.096436 
" style="fill:none;stroke:#ff7f0e;stroke-width:2;"/>
    <path clip-path="url(#pc82d3fa4f6)" d="M 124.396727 223.733314 
L 124.396727 213.487539 
" style="fill:none;stroke:#ff7f0e;stroke-width:2;"/>
    <path clip-path="url(#pc82d3fa4f6)" d="M 159.044909 245.682214 
L 159.044909 213.029458 
" style="fill:none;stroke:#ff7f0e;stroke-width:2;"/>
    <path clip-path="url(#pc82d3fa4f6)" d="M 193.693091 248.301858 
L 193.693091 221.304103 
" style="fill:none;stroke:#ff7f0e;stroke-width:2;"/>
    <path clip-path="url(#pc82d3fa4f6)" d="M 228.341273 256.48 
L 228.341273 236.656973 
" style="fill:none;stroke:#ff7f0e;stroke-width:2;"/>
    <path clip-path="url(#pc82d3fa4f6)" d="M 262.989455 241.421665 
L 262.989455 211.220056 
" style="fill:none;stroke:#ff7f0e;stroke-width:2;"/>
    <path clip-path="url(#pc82d3fa4f6)" d="M 297.637636 250.853148 
L 297.637636 204.417842 
" style="fill:none;stroke:#ff7f0e;stroke-width:2;"/>
    <path clip-path="url(#pc82d3fa4f6)" d="M 332.285818 256.48 
L 332.285818 217.60443 
" style="fill:none;stroke:#ff7f0e;stroke-width:2;"/>
    <path clip-path="url(#pc82d3fa4f6)" d="M 366.934 253.946815 
L 366.934 206.385276 
" style="fill:none;stroke:#ff7f0e;stroke-width:2;"/>
    <path clip-path="url(#pc82d3fa4f6)" d="M 401.582182 256.48 
L 401.582182 232.542467 
" style="fill:none;stroke:#ff7f0e;stroke-width:2;"/>
   </g>
   <g id="LineCollection_3">
    <path clip-path="url(#pc82d3fa4f6)" d="M 86.283727 252.942224 
L 86.283727 233.9145 
" style="fill:none;stroke:#2ca02c;stroke-width:2;"/>
    <path clip-path="url(#pc82d3fa4f6)" d="M 120.931909 218.661302 
L 120.931909 206.687713 
" style="fill:none;stroke:#2ca02c;stroke-width:2;"/>
    <path clip-path="url(#pc82d3fa4f6)" d="M 155.580091 234.616421 
L 155.580091 216.297335 
" style="fill:none;stroke:#2ca02c;stroke-width:2;"/>
    <path clip-path="url(#pc82d3fa4f6)" d="M 190.228273 247.167762 
L 190.228273 229.282645 
" style="fill:none;stroke:#2ca02c;stroke-width:2;"/>
    <path clip-path="url(#pc82d3fa4f6)" d="M 224.876455 248.623041 
L 224.876455 224.883484 
" style="fill:none;stroke:#2ca02c;stroke-width:2;"/>
    <path clip-path="url(#pc82d3fa4f6)" d="M 259.524636 239.317157 
L 259.524636 210.42643 
" style="fill:none;stroke:#2ca02c;stroke-width:2;"/>
    <path clip-path="url(#pc82d3fa4f6)" d="M 294.172818 240.35501 
L 294.172818 206.500073 
" style="fill:none;stroke:#2ca02c;stroke-width:2;"/>
    <path clip-path="url(#pc82d3fa4f6)" d="M 328.821 245.625736 
L 328.821 204.9092 
" style="fill:none;stroke:#2ca02c;stroke-width:2;"/>
    <path clip-path="url(#pc82d3fa4f6)" d="M 363.469182 246.650099 
L 363.469182 197.87187 
" style="fill:none;stroke:#2ca02c;stroke-width:2;"/>
    <path clip-path="url(#pc82d3fa4f6)" d="M 398.117364 255.790181 
L 398.117364 199.455929 
" style="fill:none;stroke:#2ca02c;stroke-width:2;"/>
   </g>
   <g id="LineCollection_4">
    <path clip-path="url(#pc82d3fa4f6)" d="M 82.818909 179.817327 
L 82.818909 165.144772 
" style="fill:none;stroke:#d62728;stroke-width:2;"/>
    <path clip-path="url(#pc82d3fa4f6)" d="M 117.467091 208.882522 
L 117.467091 190.450699 
" style="fill:none;stroke:#d62728;stroke-width:2;"/>
    <path clip-path="url(#pc82d3fa4f6)" d="M 152.115273 231.949237 
L 152.115273 215.054325 
" style="fill:none;stroke:#d62728;stroke-width:2;"/>
    <path clip-path="url(#pc82d3fa4f6)" d="M 186.763455 240.975721 
L 186.763455 231.611041 
" style="fill:none;stroke:#d62728;stroke-width:2;"/>
    <path clip-path="url(#pc82d3fa4f6)" d="M 221.411636 243.488039 
L 221.411636 238.375804 
" style="fill:none;stroke:#d62728;stroke-width:2;"/>
    <path clip-path="url(#pc82d3fa4f6)" d="M 256.059818 241.974921 
L 256.059818 217.036918 
" style="fill:none;stroke:#d62728;stroke-width:2;"/>
    <path clip-path="url(#pc82d3fa4f6)" d="M 290.708 228.437976 
L 290.708 211.082284 
" style="fill:none;stroke:#d62728;stroke-width:2;"/>
    <path clip-path="url(#pc82d3fa4f6)" d="M 325.356182 213.982251 
L 325.356182 195.701107 
" style="fill:none;stroke:#d62728;stroke-width:2;"/>
    <path clip-path="url(#pc82d3fa4f6)" d="M 360.004364 256.48 
L 360.004364 219.731302 
" style="fill:none;stroke:#d62728;stroke-width:2;"/>
    <path clip-path="url(#pc82d3fa4f6)" d="M 394.652545 241.736058 
L 394.652545 178.367261 
" style="fill:none;stroke:#d62728;stroke-width:2;"/>
   </g>
   <g id="LineCollection_5">
    <path clip-path="url(#pc82d3fa4f6)" d="M 79.354091 186.197999 
L 79.354091 164.12617 
" style="fill:none;stroke:#9467bd;stroke-width:2;"/>
    <path clip-path="url(#pc82d3fa4f6)" d="M 114.002273 218.291538 
L 114.002273 192.122173 
" style="fill:none;stroke:#9467bd;stroke-width:2;"/>
    <path clip-path="url(#pc82d3fa4f6)" d="M 148.650455 235.137035 
L 148.650455 215.187624 
" style="fill:none;stroke:#9467bd;stroke-width:2;"/>
    <path clip-path="url(#pc82d3fa4f6)" d="M 183.298636 245.174933 
L 183.298636 235.570908 
" style="fill:none;stroke:#9467bd;stroke-width:2;"/>
    <path clip-path="url(#pc82d3fa4f6)" d="M 217.946818 248.890101 
L 217.946818 236.605439 
" style="fill:none;stroke:#9467bd;stroke-width:2;"/>
    <path clip-path="url(#pc82d3fa4f6)" d="M 252.595 235.970115 
L 252.595 214.373004 
" style="fill:none;stroke:#9467bd;stroke-width:2;"/>
    <path clip-path="url(#pc82d3fa4f6)" d="M 287.243182 217.222855 
L 287.243182 196.887562 
" style="fill:none;stroke:#9467bd;stroke-width:2;"/>
    <path clip-path="url(#pc82d3fa4f6)" d="M 321.891364 230.54905 
L 321.891364 193.752592 
" style="fill:none;stroke:#9467bd;stroke-width:2;"/>
    <path clip-path="url(#pc82d3fa4f6)" d="M 356.539545 242.553439 
L 356.539545 195.445118 
" style="fill:none;stroke:#9467bd;stroke-width:2;"/>
    <path clip-path="url(#pc82d3fa4f6)" d="M 391.187727 241.355554 
L 391.187727 175.565515 
" style="fill:none;stroke:#9467bd;stroke-width:2;"/>
   </g>
   <g id="LineCollection_6">
    <path clip-path="url(#pc82d3fa4f6)" d="M 75.889273 189.280276 
L 75.889273 170.845061 
" style="fill:none;stroke:#8c564b;stroke-width:2;"/>
    <path clip-path="url(#pc82d3fa4f6)" d="M 110.537455 216.410868 
L 110.537455 194.086311 
" style="fill:none;stroke:#8c564b;stroke-width:2;"/>
    <path clip-path="url(#pc82d3fa4f6)" d="M 145.185636 231.787329 
L 145.185636 215.826197 
" style="fill:none;stroke:#8c564b;stroke-width:2;"/>
    <path clip-path="url(#pc82d3fa4f6)" d="M 179.833818 246.52266 
L 179.833818 231.945446 
" style="fill:none;stroke:#8c564b;stroke-width:2;"/>
    <path clip-path="url(#pc82d3fa4f6)" d="M 214.482 245.684203 
L 214.482 228.79666 
" style="fill:none;stroke:#8c564b;stroke-width:2;"/>
    <path clip-path="url(#pc82d3fa4f6)" d="M 249.130182 236.919601 
L 249.130182 212.622538 
" style="fill:none;stroke:#8c564b;stroke-width:2;"/>
    <path clip-path="url(#pc82d3fa4f6)" d="M 283.778364 233.449152 
L 283.778364 208.289452 
" style="fill:none;stroke:#8c564b;stroke-width:2;"/>
    <path clip-path="url(#pc82d3fa4f6)" d="M 318.426545 224.100822 
L 318.426545 185.185257 
" style="fill:none;stroke:#8c564b;stroke-width:2;"/>
    <path clip-path="url(#pc82d3fa4f6)" d="M 353.074727 245.44746 
L 353.074727 191.899399 
" style="fill:none;stroke:#8c564b;stroke-width:2;"/>
    <path clip-path="url(#pc82d3fa4f6)" d="M 387.722909 239.967056 
L 387.722909 183.361853 
" style="fill:none;stroke:#8c564b;stroke-width:2;"/>
   </g>
   <g id="line2d_19">
    <path clip-path="url(#pc82d3fa4f6)" d="M 93.213364 244.534324 
L 127.861545 226.95691 
L 162.509727 232.080612 
L 197.157909 235.258047 
L 231.806091 246.824902 
L 266.454273 229.283604 
L 301.102455 232.323796 
L 335.750636 236.950698 
L 370.398818 230.562523 
L 405.047 244.785533 
" style="fill:none;stroke:#1f77b4;stroke-linecap:square;stroke-width:2;"/>
   </g>
   <g id="line2d_20">
    <path clip-path="url(#pc82d3fa4f6)" d="M 89.748545 244.039129 
L 124.396727 218.610426 
L 159.044909 229.355836 
L 193.693091 234.802981 
L 228.341273 246.782365 
L 262.989455 226.320861 
L 297.637636 227.635495 
L 332.285818 237.591964 
L 366.934 230.166046 
L 401.582182 247.237029 
" style="fill:none;stroke:#ff7f0e;stroke-linecap:square;stroke-width:2;"/>
   </g>
   <g id="line2d_21">
    <path clip-path="url(#pc82d3fa4f6)" d="M 86.283727 243.428362 
L 120.931909 212.674508 
L 155.580091 225.456878 
L 190.228273 238.225203 
L 224.876455 236.753262 
L 259.524636 224.871794 
L 294.172818 223.427542 
L 328.821 225.267468 
L 363.469182 222.260984 
L 398.117364 227.623055 
" style="fill:none;stroke:#2ca02c;stroke-linecap:square;stroke-width:2;"/>
   </g>
   <g id="line2d_22">
    <path clip-path="url(#pc82d3fa4f6)" d="M 82.818909 172.481049 
L 117.467091 199.666611 
L 152.115273 223.501781 
L 186.763455 236.293381 
L 221.411636 240.931921 
L 256.059818 229.50592 
L 290.708 219.76013 
L 325.356182 204.841679 
L 360.004364 238.229618 
L 394.652545 210.05166 
" style="fill:none;stroke:#d62728;stroke-linecap:square;stroke-width:2;"/>
   </g>
   <g id="line2d_23">
    <path clip-path="url(#pc82d3fa4f6)" d="M 79.354091 175.162084 
L 114.002273 205.206855 
L 148.650455 225.162329 
L 183.298636 240.372921 
L 217.946818 242.74777 
L 252.595 225.171559 
L 287.243182 207.055208 
L 321.891364 212.150821 
L 356.539545 218.999279 
L 391.187727 208.460535 
" style="fill:none;stroke:#9467bd;stroke-linecap:square;stroke-width:2;"/>
   </g>
   <g id="line2d_24">
    <path clip-path="url(#pc82d3fa4f6)" d="M 75.889273 180.062669 
L 110.537455 205.24859 
L 145.185636 223.806763 
L 179.833818 239.234053 
L 214.482 237.240432 
L 249.130182 224.771069 
L 283.778364 220.869302 
L 318.426545 204.643039 
L 353.074727 218.673429 
L 387.722909 211.664454 
" style="fill:none;stroke:#8c564b;stroke-linecap:square;stroke-width:2;"/>
   </g>
   <g id="patch_3">
    <path d="M 62.03 256.48 
L 62.03 20.52 
" style="fill:none;stroke:#000000;stroke-linecap:square;stroke-linejoin:miter;stroke-width:0.8;"/>
   </g>
   <g id="patch_4">
    <path d="M 443.16 256.48 
L 443.16 20.52 
" style="fill:none;stroke:#000000;stroke-linecap:square;stroke-linejoin:miter;stroke-width:0.8;"/>
   </g>
   <g id="patch_5">
    <path d="M 62.03 256.48 
L 443.16 256.48 
" style="fill:none;stroke:#000000;stroke-linecap:square;stroke-linejoin:miter;stroke-width:0.8;"/>
   </g>
   <g id="patch_6">
    <path d="M 62.03 20.52 
L 443.16 20.52 
" style="fill:none;stroke:#000000;stroke-linecap:square;stroke-linejoin:miter;stroke-width:0.8;"/>
   </g>
   <g id="legend_1">
    <g id="patch_7">
     <path d="M 336.721875 135.8025 
L 434.76 135.8025 
Q 437.16 135.8025 437.16 133.4025 
L 437.16 28.92 
Q 437.16 26.52 434.76 26.52 
L 336.721875 26.52 
Q 334.321875 26.52 334.321875 28.92 
L 334.321875 133.4025 
Q 334.321875 135.8025 336.721875 135.8025 
z
" style="fill:#ffffff;opacity:0.8;stroke:#cccccc;stroke-linejoin:miter;"/>
    </g>
    <g id="line2d_25">
     <path d="M 339.121875 36.238125 
L 363.121875 36.238125 
" style="fill:none;stroke:#1f77b4;stroke-linecap:square;stroke-width:2;"/>
    </g>
    <g id="line2d_26"/>
    <g id="text_21">
     <!-- Sd = 0 -->
     <defs>
      <path d="M 53.515625 70.515625 
L 53.515625 60.890625 
Q 47.90625 63.578125 42.921875 64.890625 
Q 37.9375 66.21875 33.296875 66.21875 
Q 25.25 66.21875 20.875 63.09375 
Q 16.5 59.96875 16.5 54.203125 
Q 16.5 49.359375 19.40625 46.890625 
Q 22.3125 44.4375 30.421875 42.921875 
L 36.375 41.703125 
Q 47.40625 39.59375 52.65625 34.296875 
Q 57.90625 29 57.90625 20.125 
Q 57.90625 9.515625 50.796875 4.046875 
Q 43.703125 -1.421875 29.984375 -1.421875 
Q 24.8125 -1.421875 18.96875 -0.25 
Q 13.140625 0.921875 6.890625 3.21875 
L 6.890625 13.375 
Q 12.890625 10.015625 18.65625 8.296875 
Q 24.421875 6.59375 29.984375 6.59375 
Q 38.421875 6.59375 43.015625 9.90625 
Q 47.609375 13.234375 47.609375 19.390625 
Q 47.609375 24.75 44.3125 27.78125 
Q 41.015625 30.8125 33.5 32.328125 
L 27.484375 33.5 
Q 16.453125 35.6875 11.515625 40.375 
Q 6.59375 45.0625 6.59375 53.421875 
Q 6.59375 63.09375 13.40625 68.65625 
Q 20.21875 74.21875 32.171875 74.21875 
Q 37.3125 74.21875 42.625 73.28125 
Q 47.953125 72.359375 53.515625 70.515625 
z
" id="DejaVuSans-53"/>
      <path d="M 45.40625 46.390625 
L 45.40625 75.984375 
L 54.390625 75.984375 
L 54.390625 0 
L 45.40625 0 
L 45.40625 8.203125 
Q 42.578125 3.328125 38.25 0.953125 
Q 33.9375 -1.421875 27.875 -1.421875 
Q 17.96875 -1.421875 11.734375 6.484375 
Q 5.515625 14.40625 5.515625 27.296875 
Q 5.515625 40.1875 11.734375 48.09375 
Q 17.96875 56 27.875 56 
Q 33.9375 56 38.25 53.625 
Q 42.578125 51.265625 45.40625 46.390625 
z
M 14.796875 27.296875 
Q 14.796875 17.390625 18.875 11.75 
Q 22.953125 6.109375 30.078125 6.109375 
Q 37.203125 6.109375 41.296875 11.75 
Q 45.40625 17.390625 45.40625 27.296875 
Q 45.40625 37.203125 41.296875 42.84375 
Q 37.203125 48.484375 30.078125 48.484375 
Q 22.953125 48.484375 18.875 42.84375 
Q 14.796875 37.203125 14.796875 27.296875 
z
" id="DejaVuSans-64"/>
      <path d="M 10.59375 45.40625 
L 73.1875 45.40625 
L 73.1875 37.203125 
L 10.59375 37.203125 
z
M 10.59375 25.484375 
L 73.1875 25.484375 
L 73.1875 17.1875 
L 10.59375 17.1875 
z
" id="DejaVuSans-3d"/>
     </defs>
     <g transform="translate(372.721875 40.438125)scale(0.12 -0.12)">
      <use xlink:href="#DejaVuSans-53"/>
      <use x="63.476562" xlink:href="#DejaVuSans-64"/>
      <use x="126.953125" xlink:href="#DejaVuSans-20"/>
      <use x="158.740234" xlink:href="#DejaVuSans-3d"/>
      <use x="242.529297" xlink:href="#DejaVuSans-20"/>
      <use x="274.316406" xlink:href="#DejaVuSans-30"/>
     </g>
    </g>
    <g id="line2d_27">
     <path d="M 339.121875 53.851875 
L 363.121875 53.851875 
" style="fill:none;stroke:#ff7f0e;stroke-linecap:square;stroke-width:2;"/>
    </g>
    <g id="line2d_28"/>
    <g id="text_22">
     <!-- Sd = 0.02 -->
     <g transform="translate(372.721875 58.051875)scale(0.12 -0.12)">
      <use xlink:href="#DejaVuSans-53"/>
      <use x="63.476562" xlink:href="#DejaVuSans-64"/>
      <use x="126.953125" xlink:href="#DejaVuSans-20"/>
      <use x="158.740234" xlink:href="#DejaVuSans-3d"/>
      <use x="242.529297" xlink:href="#DejaVuSans-20"/>
      <use x="274.316406" xlink:href="#DejaVuSans-30"/>
      <use x="337.939453" xlink:href="#DejaVuSans-2e"/>
      <use x="369.726562" xlink:href="#DejaVuSans-30"/>
      <use x="433.349609" xlink:href="#DejaVuSans-32"/>
     </g>
    </g>
    <g id="line2d_29">
     <path d="M 339.121875 71.465625 
L 363.121875 71.465625 
" style="fill:none;stroke:#2ca02c;stroke-linecap:square;stroke-width:2;"/>
    </g>
    <g id="line2d_30"/>
    <g id="text_23">
     <!-- Sd = 0.04 -->
     <g transform="translate(372.721875 75.665625)scale(0.12 -0.12)">
      <use xlink:href="#DejaVuSans-53"/>
      <use x="63.476562" xlink:href="#DejaVuSans-64"/>
      <use x="126.953125" xlink:href="#DejaVuSans-20"/>
      <use x="158.740234" xlink:href="#DejaVuSans-3d"/>
      <use x="242.529297" xlink:href="#DejaVuSans-20"/>
      <use x="274.316406" xlink:href="#DejaVuSans-30"/>
      <use x="337.939453" xlink:href="#DejaVuSans-2e"/>
      <use x="369.726562" xlink:href="#DejaVuSans-30"/>
      <use x="433.349609" xlink:href="#DejaVuSans-34"/>
     </g>
    </g>
    <g id="line2d_31">
     <path d="M 339.121875 89.079375 
L 363.121875 89.079375 
" style="fill:none;stroke:#d62728;stroke-linecap:square;stroke-width:2;"/>
    </g>
    <g id="line2d_32"/>
    <g id="text_24">
     <!-- Sd = 0.06 -->
     <g transform="translate(372.721875 93.279375)scale(0.12 -0.12)">
      <use xlink:href="#DejaVuSans-53"/>
      <use x="63.476562" xlink:href="#DejaVuSans-64"/>
      <use x="126.953125" xlink:href="#DejaVuSans-20"/>
      <use x="158.740234" xlink:href="#DejaVuSans-3d"/>
      <use x="242.529297" xlink:href="#DejaVuSans-20"/>
      <use x="274.316406" xlink:href="#DejaVuSans-30"/>
      <use x="337.939453" xlink:href="#DejaVuSans-2e"/>
      <use x="369.726562" xlink:href="#DejaVuSans-30"/>
      <use x="433.349609" xlink:href="#DejaVuSans-36"/>
     </g>
    </g>
    <g id="line2d_33">
     <path d="M 339.121875 106.693125 
L 363.121875 106.693125 
" style="fill:none;stroke:#9467bd;stroke-linecap:square;stroke-width:2;"/>
    </g>
    <g id="line2d_34"/>
    <g id="text_25">
     <!-- Sd = 0.08 -->
     <g transform="translate(372.721875 110.893125)scale(0.12 -0.12)">
      <use xlink:href="#DejaVuSans-53"/>
      <use x="63.476562" xlink:href="#DejaVuSans-64"/>
      <use x="126.953125" xlink:href="#DejaVuSans-20"/>
      <use x="158.740234" xlink:href="#DejaVuSans-3d"/>
      <use x="242.529297" xlink:href="#DejaVuSans-20"/>
      <use x="274.316406" xlink:href="#DejaVuSans-30"/>
      <use x="337.939453" xlink:href="#DejaVuSans-2e"/>
      <use x="369.726562" xlink:href="#DejaVuSans-30"/>
      <use x="433.349609" xlink:href="#DejaVuSans-38"/>
     </g>
    </g>
    <g id="line2d_35">
     <path d="M 339.121875 124.306875 
L 363.121875 124.306875 
" style="fill:none;stroke:#8c564b;stroke-linecap:square;stroke-width:2;"/>
    </g>
    <g id="line2d_36"/>
    <g id="text_26">
     <!-- Sd = 0.1 -->
     <g transform="translate(372.721875 128.506875)scale(0.12 -0.12)">
      <use xlink:href="#DejaVuSans-53"/>
      <use x="63.476562" xlink:href="#DejaVuSans-64"/>
      <use x="126.953125" xlink:href="#DejaVuSans-20"/>
      <use x="158.740234" xlink:href="#DejaVuSans-3d"/>
      <use x="242.529297" xlink:href="#DejaVuSans-20"/>
      <use x="274.316406" xlink:href="#DejaVuSans-30"/>
      <use x="337.939453" xlink:href="#DejaVuSans-2e"/>
      <use x="369.726562" xlink:href="#DejaVuSans-31"/>
     </g>
    </g>
   </g>
  </g>
 </g>
 <defs>
  <clipPath id="pc82d3fa4f6">
   <rect height="235.96" width="381.13" x="62.03" y="20.52"/>
  </clipPath>
 </defs>
</svg>
